   <svg width="412.75000000000006" height="68.33821269440246" viewBox="0 0 300 49.67041504135853" class="looka-1j8o68f"><defs id="SvgjsDefs1600"><linearGradient id="SvgjsLinearGradient1605"><stop id="SvgjsStop1606" stop-color="#905e26" offset="0"></stop><stop id="SvgjsStop1607" stop-color="#f5ec9b" offset="0.5"></stop><stop id="SvgjsStop1608" stop-color="#905e26" offset="1"></stop></linearGradient><linearGradient id="SvgjsLinearGradient1609"><stop id="SvgjsStop1610" stop-color="#905e26" offset="0"></stop><stop id="SvgjsStop1611" stop-color="#f5ec9b" offset="0.5"></stop><stop id="SvgjsStop1612" stop-color="#905e26" offset="1"></stop></linearGradient></defs><g id="SvgjsG1601" featurekey="odWo6G-0" transform="matrix(0.8052727580070496,0,0,0.8052727580070496,-0.11918017579861177,-14.016606692210816)" fill="url(#SvgjsLinearGradient1605)"><g xmlns="http://www.w3.org/2000/svg"><g><path fill-rule="evenodd" clip-rule="evenodd" d="M84.98,17.429c-9.301,0.565-20.777,6.438-20.591,19.118    c0.117,0.302,0.25,0.621,0.368,0.933c-4.417,1.927-8.84,3.849-13.257,5.777c-12.068-5.232-24.128-10.453-36.194-15.698    c-5.688-2.465-11.406-6.561-13.925-0.586c3.012,2.972,7.922,4.471,12.036,7.094c9.137,4.582,18.261,9.163,27.387,13.747    c-9.541,5.34-20.26,8.615-29.978,13.78c-3.494,1.867-7.645,3.03-10.678,5.965c1.698,6.427,9.651,1.247,12.766,0.396    c12.735-5.07,25.472-10.143,38.205-15.203c4.623,2.156,9.241,4.317,13.863,6.474c-5.687,15.031,30.276,29.23,34.254,11.905    c1.904-8.326-7.037-17.239-17.742-19.076c-2.376-0.4-4.897-0.563-7.056-0.248c-0.716,0.207-1.435,0.414-2.147,0.629    c-3.129-1.415-6.252-2.814-9.376-4.22c2.858-1.104,5.72-2.202,8.584-3.296c1.84-1.058,5.976-0.185,7.979-0.429    c7.161-0.888,22.499-7.666,19.485-19.445C97.694,20.079,90.309,17.113,84.98,17.429z M92.635,69.823    c-0.738,2.333-4.085,2.453-5.887,2.434c-7.394-0.049-14.622-5.039-15.505-10.931C74.718,53.476,94.885,62.692,92.635,69.823z     M54.569,49.107c-0.809,4.036-8.201,2.524-6.442-2.013C49.886,42.556,55.37,45.162,54.569,49.107z M92.563,27.271    c0.514,2.328-2.078,4.898-3.388,5.994c-3.109,2.59-17.544,9.1-18.242,0.038c2.683-6.524,9.218-8.844,14.413-9.169    C87.574,24.004,91.987,24.638,92.563,27.271z"></path></g></g></g><g id="SvgjsG1602" featurekey="VGK2BT-0" transform="matrix(3.1928482055664062,0,0,3.1928482055664062,92.97573446782016,-15.21966884600954)" fill="url(#SvgjsLinearGradient1609)"><path d="M12.66 20 l-10.46 0 l0 -14.92 l2.18 0 l0 12.74 l8.28 0 l0 2.18 z M18.240000000000002 7.279999999999999 l0 10.54 l3.38 0 q1.4 0 2.52 -0.72 q1.06 -0.7 1.66 -1.88 t0.6 -2.58 q0 -1.46 -0.57 -2.68 t-1.63 -1.94 q-1.14 -0.74 -2.62 -0.74 l-3.34 0 z M14.92 7.279999999999999 l-0.96 -2.2 l7.6 0 q1.98 0 3.62 1.02 q1.58 0.98 2.5 2.68 t0.92 3.7 q0 1.5 -0.59 2.97 t-1.63 2.57 q-1 1.08 -2.14 1.54 q-1.1 0.44 -2.62 0.44 l-5.52 0 l0 -12.72 l-1.18 0 z M44.74 9.74 l-5.1 6.1 l-5.06 -6.1 l0 10.26 l-2.14 0 l0 -12.82 l-1.74 -2.1 l2.82 0 l6.1 7.32 l6.18 -7.32 l2.82 0 l-1.74 2.1 l0 12.82 l-2.14 0 l0 -10.26 z M53.88 13.4 l0 6.6 l-2.16 0 l0 -14.92 l2.16 0 l0 6.12 q0.8 -0.4 1.9 -0.4 q0.4 0 1.94 0.18 q2.16 0.26 2.92 0.26 q1.16 0 2.02 -0.38 l0 -5.78 l2.18 0 l0 14.92 l-2.18 0 l0 -6.94 q-0.86 0.38 -2.02 0.38 q-0.76 0 -2.92 -0.26 q-1.54 -0.18 -1.94 -0.18 q-1.1 0 -1.9 0.4 z"></path></g></svg>